# xmcd
#
# Track frame offsets:
#	150
#	13961
#	21591
#	25404
#	32692
#	34875
#	45817
#	55254
#	56507
#	65269
#	68200
#	68788
#	78558
#	81629
#	87568
#	88939
#
# Disc length: 1932 seconds
#
# Revision: 0
# Processed by: cddbd v1.5.2PL0 Copyright (c) Steve Scherf et al.
# Submitted via: EZCDAudioConverter 1.3.3.1
#
DISCID=de078a10
DTITLE=Satanic Cumshot - Dilatando Agujeros
DYEAR=2005
DGENRE=Grindcore
TTITLE0=Intro - The Satanic Cumming
TTITLE1=15 Kilos
TTITLE2=Metamorfosis De Odio
TTITLE3=Calzoneitor
TTITLE4=María Wakatela Y Las Ladillas Mutantes
TTITLE5=Los Pendejos De La Fama
TTITLE6=Limache Vice
TTITLE7=Extreme Lolypop Anal Consumation Of Corporal Regurgitation
TTITLE8=Ride The Rectal Rodeo
TTITLE9=Dr. Monin And Mr. Hank
TTITLE10=Bonus
TTITLE11=Pasao A Caca
TTITLE12=El Silencio De Los Inocentes
TTITLE13=Eternal Chela
TTITLE14=CMR (Calzón Metío En La Raja)
TTITLE15=Rural Dismemberment
EXTD=
EXTT0=
EXTT1=
EXTT2=
EXTT3=
EXTT4=
EXTT5=
EXTT6=
EXTT7=
EXTT8=
EXTT9=
EXTT10=
EXTT11=
EXTT12=
EXTT13=
EXTT14=
EXTT15=
PLAYORDER=
